<svg version="1.2" xmlns="http://www.w3.org/2000/svg" viewBox="0 0 4048 4044" width="4048" height="4044">
	<title>web3connect-logo-circle</title>
	<style>
		.s0 { fill: #ffffff } 
	</style>
	<g id="logo">
		<path class="s0" d="m2017.9 1306.6q4.4 0 8.7 0c119.8 0.5 235.6 25.4 340.1 84.8q7 4 14 7.9c28.9 15.3 55.5 33.2 81.3 52.9q4.8 3.9 9.6 7.4c52.5 41.1 100.1 90.5 138.6 144.7 2.2 3.5 2.2 3.5 4.8 7 61.2 88.8 99.3 188 116.7 293.8q1.4 7 2.7 14.4c13.1 83.5 7.4 169.2-10.1 251.8q-0.9 4-1.7 8.3c-3.5 16.2-8.3 32.4-13.6 48.5q-1.3 4.9-2.6 9.2c-36.7 111.9-96.2 201.6-176.2 287.7q-3 3-6.1 6.5c-75.2 79.6-180.1 133.4-282.8 168.3-4 1.3-4 1.3-8.3 3.1-177.5 59-372.1 33.7-537.3-49-63.4-32.8-117.6-76-169.2-125-3-3.1-3-3.1-6.1-5.7-29.3-27.5-54.2-56.8-77.8-89.6q-2.2-3.1-4.4-6.1c-109.3-149.1-145.1-341.9-120.6-522.8 7.4-46.8 21.8-91.8 37.6-136.4q1.3-4 2.6-8.3c21.8-63 57.7-122.9 100.1-174.5q2.2-3 4.8-6.1c56.4-69.5 121.1-125 196.7-172.7q6.1-3.9 12.7-7.8c37.2-22.3 76.1-38.1 116.7-52.9q6.1-2.6 12.7-4.8c21.4-7.5 42.8-13.1 64.7-18.4q3.9-1.3 7.4-2.2c48.1-10.9 95.3-14.4 144.3-14z"/>
		<path class="s0" d="m3188.1 847.6c14 10.5 26.3 21.9 38.5 34.1q3.9 4 7.9 8.3c44.6 45.9 62.5 105.4 62 167.9-1.7 68.6-34.1 129.4-83.5 176.2-48.5 42.8-101.8 55.5-164.3 55.5-6.6 0.4-6.6 0.4-13.1 0.4-31.5 0-62.1-2.2-88.3-21-9.2-7.8-9.2-7.8-17.5-6.1-9.6 4-13.1 8.3-19.7 16.2-16.2 19.7-34.1 37.2-52 55.1q-5.3 5.2-10.9 10.9-13.6 13.6-27.6 27.5-14 14-28.4 28.5-27.5 27.5-55.5 55c-12.3-5.6-20.6-12.2-30.2-21.8-4.4-4.4-4.4-4.4-8.7-8.8q-4.4-4.3-8.8-9.1-4.3-4.4-8.7-8.8-8.3-8.3-16.6-16.6-8.8-9.2-18.4-18.4c6.1-13.5 14-22.2 24.1-32.7q5.2-4.8 10.4-10.1 5.3-5.7 11-10.9 5.7-5.7 11.3-11.4 11.8-11.8 23.6-24 15.4-14.9 30.7-30.2 11.8-11.8 23.6-23.6 5.6-5.7 11.3-10.9 7.9-7.9 15.8-15.8 4.3-4.3 8.7-9.1c7.9-7 15.3-13.2 23.6-19.3-2.2-14-6.1-26.6-11.4-39.8-20.1-52.9-19.2-119.3 1.8-171.8q3.1-6.5 5.7-12.6 3-6.2 5.7-11.8c29.7-56.4 80.8-98.4 140.7-119.4 70-21.4 145.6-10.5 207.2 28.4z"/>
		<path class="s0" d="m3559.3 1813.3c53.3 44.6 86.1 94.9 97 163.9 4.8 63-4.8 118.9-42 171.4q-3 4.4-6.5 9.2c-20.1 27.5-45 45.4-73.5 62.9-3.9 2.2-3.9 2.2-7.8 4.8-49.4 28.4-114.6 32.8-169.6 23.2-71.7-20.1-126.4-65.1-163.1-129.8-13.1-25-13.1-25-13.1-42.9-86.6 0-173.1 0-262.3 0 0-41.5 0-82.6 0-125.4 86.6 0 173.1 0 262.3 0 2.6-11.4 5.2-22.8 7.4-34.1 21.9-59.5 70.4-102.3 126.4-128.6 78.7-34.1 174.8-27.1 244.8 25.4z"/>
		<path class="s0" d="m2731.7 2563c15.8 7 25.8 17.1 37.2 29.3 12.2 12.2 24 24 37.2 35.4 24.9 21.4 47.6 45 70.3 68.2q7.5 7 14.5 14.4 17.5 17.5 34.9 35 3.5-1.8 7-3.5c68.2-33.7 135.1-40.7 208.1-16.2 66.5 25.8 111.1 73.9 141.2 137.3 23.2 55.5 24.5 119.3 2.2 175.3-31 71.2-77.8 117.6-149.9 146-18.4 6.6-36.8 8.7-56.4 10q-7 0.5-14.5 0.9c-64.7 3.5-120.6-19.6-168.7-62.5-45.9-42.8-75.6-98.8-80.4-162.2-1.3-46.7 8.7-89.6 24-133.7q-4.8-4.4-9.6-8.8c-60.8-56.4-118.5-115.4-176.6-173.5 6.1-17.1 13.1-25.8 26.6-38.1q6.6-7 13.6-13.5 19.7-20.1 39.3-39.8z"/>
		<path class="s0" d="m1317.1 2581.8c14 6.1 22.8 14.4 33.3 24.9q5.2 5.3 10.4 10.5 5.3 5.3 10.5 10.9 5.3 5.3 11 11 13.1 13.1 26.2 26.6c-5.3 11.8-11.8 20.1-21 29.3-3.9 4-3.9 4-8.3 8.3-4.4 4.4-4.4 4.4-8.7 8.8q-4.8 4.8-9.2 9.2-9.6 9.6-19.7 19.2-14.4 14.9-29.3 29.3-9.2 9.6-18.8 18.8-4.3 4.3-8.7 8.7c-15.8 15.8-31.5 30.6-48.5 45-6.2 5.7-12.3 11.4-18 17.1q0.9 3.1 2.2 6.1 1.3 4.4 2.6 8.8 1.4 3.9 3.1 8.3 1.8 5.6 3.5 11.3 1.3 4 3.1 7.9c8.3 24.9 10.5 48.1 10 74.3q0 5.7 0 11.8c-1.3 69.1-28.4 124.6-77.8 172.3-56 48.5-120.2 65.1-192.8 61.6-60.3-5.3-119.8-42-157.8-87.4-38.9-51.6-59.4-115-52.4-179.7 10-67.3 42.4-122.8 95.7-166.1 54.6-40.2 115-52.5 181.8-46.8 24.1 3.5 47.7 10.1 69.1 21.4 10.1 5.7 10.1 5.7 18.8 4.8 10.1-4.8 16.2-11.8 24.1-20.1 8.7-9.2 17.4-17.5 27.5-25.3 7.4-6.6 13.1-12.3 19.2-19.7 21.9-25.4 45.9-48.1 69.1-71.7q7.4-7 14.9-14.4 17.4-17.5 34.9-35z"/>
		<path class="s0" d="m1138.3 870.4c14 10.5 26.3 21.8 38.1 34.5q3.5 3.1 7.4 6.6c15.3 16.1 25.8 34.1 35.8 53.7q1.8 4 4 7.9c15.3 31.5 18.8 61.6 18.8 96.6 0 5.2 0 5.2 0 10.5-0.5 21.9-2.2 41.5-9.2 62.1-3.5 9.6-6.6 19.6-9.6 29.7-1.3 5.2-1.3 5.2-3.1 10.5q-0.9 3.5-2.2 7.4 4 4 7.9 8.3c83.5 83.1 83.5 83.1 93.6 93.6 8.7 8.3 17.4 16.1 26.2 24 14.8 13.6 29.7 27.1 44.1 40.7 5.3 5.2 5.3 5.2 11 10.5 7.4 9.1 7.4 9.1 7 16.6-4.4 10-9.7 14.8-17.5 22.3q-4 3.9-8.3 7.8-4.8 4-9.2 8.3-8.8 7.9-17.5 16.2-3.9 3.5-7.9 7-11.8 10.9-23.1 22.3c-17.1-5.2-25.4-13.5-38.1-26.7q-4.3-4.3-9.2-9.6c-37.1-36.7-37.1-36.7-74.3-73.9q-4.8-4.8-10-10c-10.1-10.1-18.8-21-28-31.9-15.7-17.1-15.7-17.1-34.1-30.2-20.1 2.2-37.6 10.9-56 18.4-57.7 20.5-125.8 10-180.1-14.9-38.4-20.1-71.6-50.3-94.8-87.4q-3.1-4.4-6.1-9.2c-31.5-53.3-40.3-113.7-27.1-174 17.9-67.3 57.7-121.1 117.6-156.9 81.7-44.6 175.2-38.5 253.9 9.2z"/>
		<path class="s0" d="m643 1785.8c5.3 0 5.3 0 10.1 0 25.4 0.4 47.2 3.9 70.8 12.6q4.8 1.8 9.6 3.1c59.5 21 107.1 70.4 134.7 126.3 3.9 12.7 7.8 24.9 11.8 38.1 83.9 0 167.8 0 254.4 0 0 41.5 0 82.6 0 125.4-85.2 0-170.5 0-258.4 0q-1.7 11.4-3.9 22.8c-24 62-69.5 107.9-129.8 135q-13.1 4.8-26.2 9.6-4 1.4-8.4 3.1c-56.8 16.2-125.9 5.3-177.4-21.4-66.9-39.8-107.6-94.4-127.2-170.1-11.4-59 2.6-120.6 34.5-170.9 36.3-51.6 80.4-87 141.6-104.9 6.1-1.8 6.1-1.8 12.3-3.9 17.4-4.4 33.6-4.8 51.5-4.8z"/>
		<path class="s0" d="m2164.8 470.4c57.2 45 93.1 99.2 103.1 171.8 5.7 72.5-16.6 136.4-63.4 192.3-31.9 33.2-68.6 52-111.4 66.5-1.3 76.5-2.7 153-4 232.1-41.5 0-82.6 0-125.4 0 0-76.9 0-153.4 0-232.1-12.7-4-24.9-7.5-38.1-11.4-60.3-27.1-102.7-77.8-126.3-138.6-8.7-28-11.8-52.4-11.4-81.7q0-5.3 0-11c0-62.9 25.8-115.4 69.1-160.4 83.5-79.5 211.2-95.3 307.8-27.5z"/>
		<path class="s0" d="m1967.6 2909.2c40.2 0 80.4 0 121.5 0 0 72.6 0 145.6 0 220.3q17.1 4 34.1 7.9c31.9 12.7 56.4 33.2 80 56.8 3.1 3.1 3.1 3.1 6.6 6.2 42.4 43.2 60.3 110.1 59.4 169.1-2.1 63.4-27.9 123.8-73.4 168.3-59.9 54.7-123.3 66.5-202.4 63.9-59.9-3.5-111.9-41.6-151.3-84.8-47.2-57.3-58.1-121.1-53.3-193.3 7-61.2 44.6-116.2 91.8-154.3 26.7-19.6 51.2-30.1 83.1-43.7 1.3-71.2 2.6-142.9 3.9-216.4z"/>
	</g>
</svg>