<svg version="1.2" xmlns="http://www.w3.org/2000/svg" viewBox="0 0 1263 200" width="1263" height="200"><style>.a{fill:#fff}</style><path class="a" d="m39 56c-8.3 0-15-6.7-15-15 0-8.3 6.7-15 15-15 8.3 0 15 6.7 15 15 0 8.3-6.7 15-15 15zm-23 60c-8.3 0-15-6.7-15-15 0-8.3 6.7-15 15-15 8.3 0 15 6.7 15 15 0 8.3-6.7 15-15 15zm23 59c-8.3 0-15-6.7-15-15 0-8.3 6.7-15 15-15 8.3 0 15 6.7 15 15 0 8.3-6.7 15-15 15zm64 24c-8.3 0-15-6.7-15-15 0-8.3 6.7-15 15-15 8.3 0 15 6.7 15 15 0 8.3-6.7 15-15 15zm64-25c-8.3 0-15-6.7-15-15 0-8.3 6.7-15 15-15 8.3 0 15 6.7 15 15 0 8.3-6.7 15-15 15zm22-59c-8.3 0-15-6.7-15-15 0-8.3 6.7-15 15-15 8.3 0 15 6.7 15 15 0 8.3-6.7 15-15 15zm-22-60c-8.3 0-15-6.7-15-15 0-8.3 6.7-15 15-15 8.3 0 15 6.7 15 15 0 8.3-6.7 15-15 15zm-64-24c-8.3 0-15-6.7-15-15 0-8.3 6.7-15 15-15 8.3 0 15 6.7 15 15 0 8.3-6.7 15-15 15zm3-2v16h-7v-16zm53.4 22.9l-12.5 12.5-4.9-5 12.4-12.4zm-108.4-3.9l12.4 12.4-4.9 4.9-12.4-12.4zm55 108v16h-7v-16zm-42.6-16.1l-12.4 12.5-5-5 12.4-12.4zm83.6-4.9l12.4 12.4-4.9 4.9-12.4-12.4zm-100.5-31h-18.5v-7h18.5zm130-1h-18.5v-7h18.5z"/><path fill-rule="evenodd" class="a" d="m102.3 144.8c-24.8 0-44.8-20-44.8-44.8 0-24.7 20-44.7 44.8-44.7 24.8 0 44.8 20 44.8 44.7 0 24.8-20 44.8-44.8 44.8z"/><path fill-rule="evenodd" class="a" d="m245.9 55.2h20.8l14.9 62.5h0.8l16.4-62.5h17.8l16.4 62.7h0.8l14.9-62.7h20.8l-25.7 90h-18.6l-17.1-58.9h-0.7l-17.1 58.9h-18.6zm123.4 56.6c0-20.8 12.9-35 32.7-35 17.9 0 31.8 11.4 31.8 34.3v5.2h-46c0 10.1 5.9 16.3 15.3 16.3 6.2 0 11.1-2.7 13-7.8l17.3 1.1c-2.7 12.5-13.9 20.7-30.6 20.7-20.8 0-33.5-13.4-33.5-34.8zm46.9-7.1c-0.1-8.1-5.7-13.9-13.9-13.9-8.3 0-14.1 6.2-14.5 13.9zm30.2-49.5h18.7v33.9h0.6c2.5-5.5 7.9-12.3 19.2-12.3 14.8 0 27.4 11.6 27.4 34.8 0 22.6-12 34.8-27.4 34.8-10.9 0-16.6-6.3-19.2-12h-0.8v10.9h-18.5zm32.5 76.2c9.2 0 14.2-8.2 14.2-20 0-11.7-4.9-19.7-14.2-19.7-9.1 0-14.2 7.7-14.2 19.7 0 12.1 5.2 20 14.2 20zm44.7-11.7h19.2c0.4 6.6 6.7 11 15.1 11 8.7 0 14.8-4.9 14.8-12.1 0-7.2-6.4-12.3-16.6-12.3h-8.4v-14h8.4c8.7 0 14.7-4.8 14.7-11.9 0-6.7-5.1-11.4-12.8-11.4-7.8 0-14.1 4.4-14.3 11.3h-18.2c0.2-15.6 14.1-26.4 32.6-26.4 18.6 0 31.1 11.2 31 25.4 0.1 10.1-6.9 17.2-17 19v0.7c13.3 1.7 20.4 9.7 20.4 20.9 0 15.4-14.5 26.5-34.7 26.5-19.8 0-33.8-10.9-34.2-26.7z"/><path fill-rule="evenodd" class="a" d="m666.9 86.7c-1.5-9.9-9-15.9-19.4-15.9-13.9 0-23.1 10.7-23.1 29.4 0 19.2 9.3 29.4 23 29.4 10.1 0 17.7-5.5 19.5-15.2l19.2 0.1c-2 16.6-16 31.9-39 31.9-24.1 0-42-16.8-42-46.2 0-29.5 18.2-46.3 42-46.3 20.8 0 36.5 12 39 32.8zm29.9 25c0-20.9 12.8-34.9 33.2-34.9 20.5 0 33.3 14 33.3 34.9 0 20.8-12.8 34.8-33.3 34.8-20.4 0-33.2-14-33.2-34.8zm47.4-0.1c0-11.8-4.8-20.5-14.1-20.5-9.4 0-14.3 8.7-14.3 20.5 0 11.8 4.9 20.4 14.3 20.4 9.3 0 14.1-8.6 14.1-20.4zm50 33.6h-18.7v-67.5h17.9v11.9h0.7c3.1-7.9 10.3-12.8 20.4-12.8 14 0 23.3 9.7 23.3 25.4v43h-18.8v-39.7c0.1-8.2-4.4-13.1-12-13.1-7.5 0-12.7 5.1-12.8 13.8zm77 0h-18.7v-67.6h17.8v11.9h0.8c3.1-7.8 10.3-12.8 20.4-12.8 14 0 23.3 9.7 23.3 25.5v43h-18.8v-39.7c0.1-8.3-4.5-13.2-12-13.2-7.5 0-12.7 5.1-12.8 13.8zm55.6-33.4c0-20.9 12.8-35 32.7-35 17.9 0 31.8 11.3 31.8 34.3v5.1h-46v0.1c0 10.1 5.9 16.3 15.3 16.3 6.2 0 11-2.7 12.9-7.9l17.4 1.2c-2.7 12.5-13.9 20.6-30.6 20.6-20.8 0-33.5-13.3-33.5-34.7zm46.8-7.2c0-8-5.6-13.8-13.8-13.8-8.3 0-14.1 6.1-14.5 13.8zm27.1 7.1c0-20.7 12.7-34.9 33.1-34.9 17.7 0 29.5 10.2 30.3 25.9h-17.7c-1-6.8-5.4-11.3-12.2-11.3-8.8 0-14.5 7.3-14.5 20 0 13 5.7 20.3 14.5 20.3 6.4 0 11.1-4 12.2-11.2h17.7c-0.9 15.5-12.2 26-30.2 26-20.8 0-33.2-14.3-33.2-34.8zm111.4-19.9h-12.7v32.7c0 5.2 2.6 6.6 6.3 6.6 1.7 0 3.7-0.5 4.7-0.7l2.9 14c-1.9 0.6-5.3 1.6-10.2 1.7-13.5 0.6-22.6-5.9-22.5-19.2v-35.1h-9.2v-14.1h9.2v-16.2h18.8v16.2h12.7z"/><path fill-rule="evenodd" class="a" d="m1126 145.8c-2.9 0-5.3-2.4-5.3-5.3 0-2.9 2.4-5.2 5.3-5.2 2.9 0 5.3 2.3 5.3 5.2 0 2.9-2.4 5.3-5.3 5.3zm11.6-17.3c0-10.4 6.3-17.5 16.5-17.5 8.9 0 14.8 5.1 15.2 12.9h-8.9c-0.5-3.3-2.7-5.6-6.1-5.6-4.4 0-7.2 3.6-7.2 10 0 6.5 2.8 10.2 7.2 10.2 3.2 0 5.6-2.1 6.1-5.7h8.9c-0.5 7.8-6.1 13.1-15.1 13.1-10.4 0-16.6-7.2-16.6-17.4zm53 17.4c-9.2 0-16.7-7.8-16.7-17.5 0-9.6 7.5-17.4 16.7-17.4 9.1 0 16.6 7.8 16.6 17.4 0 9.7-7.5 17.5-16.6 17.5zm7.1-17.5c0-5.7-3.2-10.3-7.1-10.3-4 0-7.2 4.6-7.2 10.3 0 5.6 3.2 10.2 7.2 10.2 3.9 0 7.1-4.6 7.1-10.2zm15.6-17h8.9v6h0.4c1.4-4 4.9-6.4 9.4-6.4 4.7 0 8.1 2.5 9.2 6.4h0.3c1.4-3.9 5.3-6.4 10.2-6.4 6.3 0 10.7 4.2 10.7 11.5v22.7h-9.4v-20.9c0-3.7-2.2-5.6-5.2-5.6-3.4 0-5.4 2.4-5.4 5.9v20.6h-9.1v-21.1c0-3.3-2.1-5.4-5.2-5.4-3.1 0-5.5 2.5-5.5 6.2v20.3h-9.3z"/></svg>