<svg version="1.2" xmlns="http://www.w3.org/2000/svg" viewBox="0 0 926 923" width="4048" height="4035">
	<title>Gemini_Generated_Image_slv2eslv2eslv2es</title>
	<style>
		.s0 { fill: #ffffff } 
		.s1 { fill: #208de5 } 
		.s2 { fill: #248ae3 } 
		.s3 { fill: #2061d1 } 
		.s4 { fill: #1e55ce } 
		.s5 { fill: #2395ea } 
		.s6 { fill: #1ec4fb } 
		.s7 { fill: #1fbcf9 } 
		.s8 { fill: #1fb6f7 } 
		.s9 { fill: #2266d7 } 
	</style>
	<g id="logo">
		<path id="Layer copy" class="s0" d="m458-0.1q2.9 0 5.9 0c77.2 0.4 152.1 16.6 219.8 55q4.5 2.5 9 4.9c18.5 10.1 35.7 21.5 52.4 34.4 2 1.6 4.1 3.1 6.2 4.7 33.9 26.6 64.9 58.4 89.6 93.6 1.5 2.2 1.5 2.2 3.1 4.3 39.5 57.4 64 121.6 75.6 189.9 0.5 3 1.1 6.1 1.7 9.3 8.3 54.1 4.6 109.4-6.6 162.7q-0.6 2.6-1.2 5.3c-2.3 10.7-5.3 21.1-8.7 31.5q-0.9 3-1.9 6c-23.7 72.3-62.1 130.2-113.6 185.7q-1.9 2.2-4 4.4c-48.7 51.4-116.5 86.2-182.7 108.6-2.7 1-2.7 1-5.5 1.9-114.7 38.1-240.2 21.7-347-31.5-41.1-21.2-76.1-49.2-109.5-80.9-1.9-1.8-1.9-1.8-3.8-3.6-18.8-17.9-35.1-36.8-50.3-57.9q-1.5-2-3-4.1c-70.4-96.2-93.8-220.7-77.9-337.6 5-30.4 14.1-59.4 24.4-88.3q0.9-2.5 1.8-5.1c14-40.8 37.2-79.6 64.6-112.9q1.5-1.8 3-3.7c36.4-45.2 78.2-80.9 127.2-111.8 2.7-1.7 5.4-3.4 8.2-5.2 24-14.3 49.2-24.4 75.3-34.1 2.8-1 5.5-2 8.3-3 13.7-4.9 27.7-8.6 41.8-12q2.4-0.6 4.8-1.2c30.9-7.2 61.5-9.4 93-9.3z"/>
		<path class="s1" d="m461.6 297.9q1 0 2 0c27.4 0.1 53.9 5.8 77.8 19.4q1.6 0.9 3.2 1.8c6.6 3.5 12.7 7.6 18.6 12.1q1.1 0.9 2.2 1.7c12 9.4 22.9 20.7 31.7 33.1 0.5 0.8 0.5 0.8 1.1 1.6 14 20.3 22.7 43 26.7 67.2q0.3 1.6 0.6 3.3c3 19.1 1.7 38.7-2.3 57.6q-0.2 0.9-0.4 1.9c-0.8 3.7-1.9 7.4-3.1 11.1q-0.3 1.1-0.6 2.1c-8.4 25.6-22 46.1-40.3 65.8q-0.7 0.7-1.4 1.5c-17.2 18.2-41.2 30.5-64.7 38.5-0.9 0.3-0.9 0.3-1.9 0.7-40.6 13.5-85.1 7.7-122.9-11.2-14.5-7.5-26.9-17.4-38.7-28.6-0.7-0.7-0.7-0.7-1.4-1.3-6.7-6.3-12.4-13-17.8-20.5q-0.5-0.7-1-1.4c-25-34.1-33.2-78.2-27.6-119.6 1.7-10.7 5-21 8.6-31.2q0.3-0.9 0.6-1.9c5-14.4 13.2-28.1 22.9-39.9q0.5-0.7 1.1-1.4c12.9-15.9 27.7-28.6 45-39.5q1.4-0.9 2.9-1.8c8.5-5.1 17.4-8.7 26.7-12.1q1.4-0.6 2.9-1.1c4.9-1.7 9.8-3 14.8-4.2q0.9-0.3 1.7-0.5c11-2.5 21.8-3.3 33-3.2z"/>
		<path class="s2" d="m729.3 192.9c3.2 2.4 6 5 8.8 7.8q0.9 0.9 1.8 1.9c10.2 10.5 14.3 24.1 14.2 38.4-0.4 15.7-7.8 29.6-19.1 40.3-11.1 9.8-23.3 12.7-37.6 12.7-1.5 0.1-1.5 0.1-3 0.1-7.2 0-14.2-0.5-20.2-4.8-2.1-1.8-2.1-1.8-4-1.4-2.2 0.9-3 1.9-4.5 3.7-3.7 4.5-7.8 8.5-11.9 12.6q-1.2 1.2-2.5 2.5-3.1 3.1-6.3 6.3-3.2 3.2-6.5 6.5-6.3 6.3-12.7 12.6c-2.8-1.3-4.7-2.8-6.9-5-1-1-1-1-2-2q-1-1-2-2.1-1-1-2-2-1.9-1.9-3.8-3.8-2-2.1-4.2-4.2c1.4-3.1 3.2-5.1 5.5-7.5q1.2-1.1 2.4-2.3 1.2-1.3 2.5-2.5 1.3-1.3 2.6-2.6 2.7-2.7 5.4-5.5 3.5-3.4 7-6.9 2.7-2.7 5.4-5.4 1.3-1.3 2.6-2.5 1.8-1.8 3.6-3.6 1-1 2-2.1c1.8-1.6 3.5-3 5.4-4.4-0.5-3.2-1.4-6.1-2.6-9.1-4.6-12.1-4.4-27.3 0.4-39.3q0.7-1.5 1.3-2.9 0.7-1.4 1.3-2.7c6.8-12.9 18.5-22.5 32.2-27.3 16-4.9 33.3-2.4 47.4 6.5z"/>
		<path class="s3" d="m814.2 413.8c12.2 10.2 19.7 21.7 22.2 37.5 1.1 14.4-1.1 27.2-9.6 39.2q-0.7 1-1.5 2.1c-4.6 6.3-10.3 10.4-16.8 14.4-0.9 0.5-0.9 0.5-1.8 1.1-11.3 6.5-26.2 7.5-38.8 5.3-16.4-4.6-28.9-14.9-37.3-29.7-3-5.7-3-5.7-3-9.8-19.8 0-39.6 0-60 0 0-9.5 0-18.9 0-28.7 19.8 0 39.6 0 60 0 0.6-2.6 1.2-5.2 1.7-7.8 5-13.6 16.1-23.4 28.9-29.4 18-7.8 40-6.2 56 5.8z"/>
		<path class="s4" d="m624.9 585.3c3.6 1.6 5.9 3.9 8.5 6.7 2.8 2.8 5.5 5.5 8.5 8.1 5.7 4.9 10.9 10.3 16.1 15.6q1.7 1.6 3.3 3.3 4 4 8 8 0.8-0.4 1.6-0.8c15.6-7.7 30.9-9.3 47.6-3.7 15.2 5.9 25.4 16.9 32.3 31.4 5.3 12.7 5.6 27.3 0.5 40.1-7.1 16.3-17.8 26.9-34.3 33.4-4.2 1.5-8.4 2-12.9 2.3q-1.6 0.1-3.3 0.2c-14.8 0.8-27.6-4.5-38.6-14.3-10.5-9.8-17.3-22.6-18.4-37.1-0.3-10.7 2-20.5 5.5-30.6q-1.1-1-2.2-2c-13.9-12.9-27.1-26.4-40.4-39.7 1.4-3.9 3-5.9 6.1-8.7q1.5-1.6 3.1-3.1 4.5-4.6 9-9.1z"/>
		<path class="s5" d="m301.3 589.6c3.2 1.4 5.2 3.3 7.6 5.7q1.2 1.2 2.4 2.4 1.2 1.2 2.4 2.5 1.2 1.2 2.5 2.5 3 3 6 6.1c-1.2 2.7-2.7 4.6-4.8 6.7-0.9 0.9-0.9 0.9-1.9 1.9-1 1-1 1-2 2q-1.1 1.1-2.1 2.1-2.2 2.2-4.5 4.4-3.3 3.4-6.7 6.7-2.1 2.2-4.3 4.3-1 1-2 2c-3.6 3.6-7.2 7-11.1 10.3-1.4 1.3-2.8 2.6-4.1 3.9q0.2 0.7 0.5 1.4 0.3 1 0.6 2 0.3 0.9 0.7 1.9 0.4 1.3 0.8 2.6 0.3 0.9 0.7 1.8c1.9 5.7 2.4 11 2.3 17q0 1.3 0 2.7c-0.3 15.8-6.5 28.5-17.8 39.4-12.8 11.1-27.5 14.9-44.1 14.1-13.8-1.2-27.4-9.6-36.1-20-8.9-11.8-13.6-26.3-12-41.1 2.3-15.4 9.7-28.1 21.9-38 12.5-9.2 26.3-12 41.6-10.7 5.5 0.8 10.9 2.3 15.8 4.9 2.3 1.3 2.3 1.3 4.3 1.1 2.3-1.1 3.7-2.7 5.5-4.6 2-2.1 4-4 6.3-5.8 1.7-1.5 3-2.8 4.4-4.5 5-5.8 10.5-11 15.8-16.4q1.7-1.6 3.4-3.3 4-4 8-8z"/>
		<path class="s6" d="m260.4 198.1c3.2 2.4 6 5 8.7 7.9q0.8 0.7 1.7 1.5c3.5 3.7 5.9 7.8 8.2 12.3q0.4 0.9 0.9 1.8c3.5 7.2 4.3 14.1 4.3 22.1 0 1.2 0 1.2 0 2.4-0.1 5-0.5 9.5-2.1 14.2-0.8 2.2-1.5 4.5-2.2 6.8-0.3 1.2-0.3 1.2-0.7 2.4q-0.2 0.8-0.5 1.7 0.9 0.9 1.8 1.9c19.1 19 19.1 19 21.4 21.4 2 1.9 4 3.7 6 5.5 3.4 3.1 6.8 6.2 10.1 9.3 1.2 1.2 1.2 1.2 2.5 2.4 1.7 2.1 1.7 2.1 1.6 3.8-1 2.3-2.2 3.4-4 5.1q-0.9 0.9-1.9 1.8-1.1 0.9-2.1 1.9-2 1.8-4 3.7-0.9 0.8-1.8 1.6-2.7 2.5-5.3 5.1c-3.9-1.2-5.8-3.1-8.7-6.1q-1-1-2.1-2.2c-8.5-8.4-8.5-8.4-17-16.9q-1.1-1.1-2.3-2.3c-2.3-2.3-4.3-4.8-6.4-7.3-3.6-3.9-3.6-3.9-7.8-6.9-4.6 0.5-8.6 2.5-12.8 4.2-13.2 4.7-28.8 2.3-41.2-3.4-8.8-4.6-16.4-11.5-21.7-20q-0.7-1-1.4-2.1c-7.2-12.2-9.2-26-6.2-39.8 4.1-15.4 13.2-27.7 26.9-35.9 18.7-10.2 40.1-8.8 58.1 2.1z"/>
		<path class="s7" d="m147.1 407.5c1.2 0 1.2 0 2.3 0 5.8 0.1 10.8 0.9 16.2 2.9q1.1 0.4 2.2 0.7c13.6 4.8 24.5 16.1 30.8 28.9 0.9 2.9 1.8 5.7 2.7 8.7 19.2 0 38.4 0 58.2 0 0 9.5 0 18.9 0 28.7-19.5 0-39 0-59.1 0q-0.4 2.6-0.9 5.2c-5.5 14.2-15.9 24.7-29.7 30.9q-3 1.1-6 2.2-0.9 0.3-1.9 0.7c-13 3.7-28.8 1.2-40.6-4.9-15.3-9.1-24.6-21.6-29.1-38.9-2.6-13.5 0.6-27.6 7.9-39.1 8.3-11.8 18.4-19.9 32.4-24 1.4-0.4 1.4-0.4 2.8-0.9 4-1 7.7-1.1 11.8-1.1z"/>
		<path class="s8" d="m495.2 106.6c13.1 10.3 21.3 22.7 23.6 39.3 1.3 16.6-3.8 31.2-14.5 44-7.3 7.6-15.7 11.9-25.5 15.2-0.3 17.5-0.6 35-0.9 53.1-9.5 0-18.9 0-28.7 0 0-17.6 0-35.1 0-53.1-2.9-0.9-5.7-1.7-8.7-2.6-13.8-6.2-23.5-17.8-28.9-31.7-2-6.4-2.7-12-2.6-18.7q0-1.2 0-2.5c0-14.4 5.9-26.4 15.8-36.7 19.1-18.2 48.3-21.8 70.4-6.3z"/>
		<path class="s9" d="m450.1 664.5c9.2 0 18.4 0 27.8 0 0 16.6 0 33.3 0 50.4 2.6 0.6 5.2 1.2 7.8 1.8 7.3 2.9 12.9 7.6 18.3 13 0.7 0.7 0.7 0.7 1.5 1.4 9.7 9.9 13.8 25.2 13.6 38.7-0.5 14.5-6.4 28.3-16.8 38.5-13.7 12.5-28.2 15.2-46.3 14.6-13.7-0.8-25.6-9.5-34.6-19.4-10.8-13.1-13.3-27.7-12.2-44.2 1.6-14 10.2-26.6 21-35.3 6.1-4.5 11.7-6.9 19-10 0.3-16.3 0.6-32.7 0.9-49.5z"/>
	</g>
</svg>