<svg version="1.2" xmlns="http://www.w3.org/2000/svg" viewBox="0 0 926 923" width="926" height="923"><style>.a{fill:#fff}</style><path class="a" d="m230.2 296.7c-30.5 0-55.1-24.6-55.1-55.1 0-30.5 24.6-55.2 55.1-55.2 30.5 0 55.2 24.7 55.2 55.2 0 30.5-24.7 55.1-55.2 55.1zm-84.5 220.7c-30.6 0-55.2-24.7-55.2-55.2 0-30.5 24.6-55.1 55.2-55.1 30.5 0 55.1 24.6 55.1 55.1 0 30.5-24.6 55.2-55.1 55.2zm84.5 216.9c-30.5 0-55.1-24.6-55.1-55.1 0-30.5 24.6-55.2 55.1-55.2 30.5 0 55.2 24.7 55.2 55.2 0 30.5-24.7 55.1-55.2 55.1zm235.4 88.3c-30.5 0-55.2-24.7-55.2-55.2 0-30.5 24.7-55.1 55.2-55.1 30.5 0 55.1 24.6 55.1 55.1 0 30.5-24.6 55.2-55.1 55.2zm235.3-91.9c-30.5 0-55.1-24.7-55.1-55.2 0-30.5 24.6-55.2 55.1-55.2 30.5 0 55.2 24.7 55.2 55.2 0 30.5-24.7 55.2-55.2 55.2zm80.9-217c-30.5 0-55.1-24.7-55.1-55.2 0-30.5 24.6-55.1 55.1-55.1 30.5 0 55.2 24.6 55.2 55.1 0 30.5-24.7 55.2-55.2 55.2zm-80.9-220.6c-30.5 0-55.1-24.7-55.1-55.2 0-30.5 24.6-55.2 55.1-55.2 30.5 0 55.2 24.7 55.2 55.2 0 30.5-24.7 55.2-55.2 55.2zm-235.3-88.3c-30.5 0-55.2-24.7-55.2-55.2 0-30.5 24.7-55.1 55.2-55.1 30.5 0 55.1 24.6 55.1 55.1 0 30.5-24.6 55.2-55.1 55.2zm11-7.4v58.9h-25.7v-58.9zm196.2 84.4l-45.6 45.7-18.2-18.2 45.6-45.7zm-398.7-14.5l45.7 45.7-18.2 18.2-45.7-45.7zm202.5 397.2v58.8h-25.8v-58.8zm-156.8-59.1l-45.6 45.7-18.2-18.2 45.6-45.7zm307.4-18.2l45.7 45.7-18.2 18.2-45.7-45.7zm-369.4-114h-68v-25.7h68zm478.1-3.7h-68.1v-25.7h68.1z"/><path fill-rule="evenodd" class="a" d="m463 623.2c-91 0-164.6-73.6-164.6-164.6 0-91 73.6-164.6 164.6-164.6 91 0 164.6 73.6 164.6 164.6 0 91-73.6 164.6-164.6 164.6z"/></svg>